<mxfile host="app.diagrams.net" modified="2023-07-28T12:50:21.342Z" agent="Mozilla/5.0 (X11; CrOS x86_64 14541.0.0) AppleWebKit/537.36 (KHTML, like Gecko) Chrome/114.0.0.0 Safari/537.36" version="21.6.5" etag="9nvxa5jhcewauhEGySwL" type="github">
  <diagram name="Page-1" id="7Lhzf_5UizSN4sAfTPkP">
    <mxGraphModel>
      <root>
        <mxCell id="0" />
        <mxCell id="1" parent="0" />
      </root>
    </mxGraphModel>
  </diagram>
</mxfile>
